{"title":"The.Biggest.Loser.Australia.s07e21.PDTV.XviD.BF1.avi","uid":7052267,"size":523278542,"categoryP":"video","categoryS":"tv_shows","magnet":"?xt=urn:btih:977c5464004955b1915ccab5bd61da7e3d16f370&amp;dn=The.Biggest.Loser.Australia.s07e21.PDTV.XviD.BF1.avi&amp;tr=udp%3A%2F%2Ftracker.openbittorrent.com%3A80&amp;tr=udp%3A%2F%2Fopen.demonii.com%3A1337&amp;tr=udp%3A%2F%2Ftracker.coppersurfer.tk%3A6969&amp;tr=udp%3A%2F%2Fexodus.desync.com%3A6969","seeders":0,"leechers":0,"uploader":"bigfish5","files":1,"time":1329994805,"description":"\tThe Biggest Loser Australia Season 7 Episode 21\n\n16 Single people who are overweight and looking for love line up to have their lives changed.\n\nTonight, Blindfold Box of Chocolates Temptation\n\nEnjoy!\n\nGeneral\nComplete name                    : K:\\Torrents\\Aust Biggest Loser\\The.Biggest.Loser.Australia.s07e21.PDTV.XviD.BF1.avi\nFormat                           : AVI\nFormat/Info                      : Audio Video Interleave\nFile size                        : 499 MiB\nDuration                         : 45mn 5s\nOverall bit rate                 : 1 547 Kbps\n\nVideo\nID                               : 0\nFormat                           : MPEG-4 Visual\nFormat profile                   : Advanced Simple@L5\nFormat settings, BVOP            : 2\nFormat settings, QPel            : No\nFormat settings, GMC             : No warppoints\nFormat settings, Matrix          : Default (H.263)\nCodec ID                         : XVID\nCodec ID/Hint                    : XviD\nDuration                         : 45mn 5s\nBit rate                         : 1 307 Kbps\nWidth                            : 640 pixels\nHeight                           : 352 pixels\nDisplay aspect ratio             : 16:9\nFrame rate                       : 25.000 fps\nColor space                      : YUV\nChroma subsampling               : 4:2:0\nBit depth                        : 8 bits\nScan type                        : Progressive\nCompression mode                 : Lossy\nBits/(Pixel*Frame)               : 0.232\nStream size                      : 422 MiB (84%)\nWriting library                  : XviD 1.2.1 (UTC 2008-12-04)\n\nAudio\nID                               : 1\nFormat                           : MPEG Audio\nFormat version                   : Version 1\nFormat profile                   : Layer 3\nMode                             : Joint stereo\nCodec ID                         : 55\nCodec ID/Hint                    : MP3\nDuration                         : 45mn 5s\nBit rate mode                    : Variable\nBit rate                         : 227 Kbps\nMinimum bit rate                 : 32.0 Kbps\nChannel(s)                       : 2 channels\nSampling rate                    : 48.0 KHz\nCompression mode                 : Lossy\nStream size                      : 73.4 MiB (15%)\n","torrent":{"xt":"urn:btih:977c5464004955b1915ccab5bd61da7e3d16f370","amp;dn":"The.Biggest.Loser.Australia.s07e21.PDTV.XviD.BF1.avi","amp;tr":["udp%3A%2F%2Ftracker.openbittorrent.com%3A80","udp%3A%2F%2Fopen.demonii.com%3A1337","udp%3A%2F%2Ftracker.coppersurfer.tk%3A6969","udp%3A%2F%2Fexodus.desync.com%3A6969"],"infoHash":"977c5464004955b1915ccab5bd61da7e3d16f370","infoHashBuffer":{"type":"Buffer","data":[151,124,84,100,0,73,85,177,145,92,202,181,189,97,218,126,61,22,243,112]},"announce":[],"urlList":[]}}